<svg xmlns="http://www.w3.org/2000/svg" xmlns:xlink="http://www.w3.org/1999/xlink" version="1.1" width="256" height="256" viewBox="0 0 256 256" xml:space="preserve">

<defs>
</defs>
<g style="stroke: none; stroke-width: 0; stroke-dasharray: none; stroke-linecap: butt; stroke-linejoin: miter; stroke-miterlimit: 10; fill: none; fill-rule: nonzero; opacity: 1;" transform="translate(1.4065934065934016 1.4065934065934016) scale(2.81 2.81)" >
	<path d="M 70.034 69.667 h -6.945 c -1.657 0 -3 -1.343 -3 -3 s 1.343 -3 3 -3 h 6.945 C 77.735 63.667 84 57.402 84 49.701 C 84 42 77.735 35.736 70.034 35.736 h -0.323 c -1.523 0 -2.805 -1.142 -2.98 -2.655 C 65.455 22.056 56.113 13.742 45 13.742 c -11.112 0 -20.455 8.314 -21.731 19.338 c -0.175 1.514 -1.457 2.655 -2.98 2.655 h -0.323 C 12.265 35.736 6 42 6 49.701 c 0 7.701 6.265 13.966 13.966 13.966 h 6.945 c 1.657 0 3 1.343 3 3 s -1.343 3 -3 3 h -6.945 C 8.957 69.667 0 60.71 0 49.701 c 0 -10.25 7.764 -18.72 17.719 -19.84 C 20.396 17.087 31.704 7.742 45 7.742 c 13.297 0 24.605 9.345 27.281 22.119 C 82.236 30.981 90 39.452 90 49.701 C 90 60.71 81.043 69.667 70.034 69.667 z" style="stroke: none; stroke-width: 1; stroke-dasharray: none; stroke-linecap: butt; stroke-linejoin: miter; stroke-miterlimit: 10; fill: rgb(89,154,226); fill-rule: nonzero; opacity: 1;" transform=" matrix(1 0 0 1 0 0) " stroke-linecap="round" />
	<path d="M 45 82.258 c -12.287 0 -22.284 -9.997 -22.284 -22.284 S 32.713 37.69 45 37.69 s 22.283 9.996 22.283 22.283 S 57.287 82.258 45 82.258 z M 45 43.69 c -8.979 0 -16.284 7.305 -16.284 16.283 c 0 8.979 7.305 16.284 16.284 16.284 c 8.979 0 16.283 -7.305 16.283 -16.284 C 61.283 50.995 53.979 43.69 45 43.69 z" style="stroke: none; stroke-width: 1; stroke-dasharray: none; stroke-linecap: butt; stroke-linejoin: miter; stroke-miterlimit: 10; fill: rgb(221,88,88); fill-rule: nonzero; opacity: 1;" transform=" matrix(1 0 0 1 0 0) " stroke-linecap="round" />
	<path d="M 31.385 76.63 c -0.768 0 -1.536 -0.293 -2.121 -0.879 c -1.172 -1.171 -1.172 -3.071 0 -4.242 l 27.27 -27.271 c 1.172 -1.172 3.07 -1.172 4.242 0 c 1.172 1.171 1.172 3.071 0 4.242 l -27.27 27.271 C 32.921 76.337 32.153 76.63 31.385 76.63 z" style="stroke: none; stroke-width: 1; stroke-dasharray: none; stroke-linecap: butt; stroke-linejoin: miter; stroke-miterlimit: 10; fill: rgb(221,88,88); fill-rule: nonzero; opacity: 1;" transform=" matrix(1 0 0 1 0 0) " stroke-linecap="round" />
</g>
</svg>